<?xml version="1.0" standalone="no"?>
<!DOCTYPE svg PUBLIC "-//W3C//DTD SVG 20010904//EN"
 "http://www.w3.org/TR/2001/REC-SVG-20010904/DTD/svg10.dtd">
<svg version="1.0" xmlns="http://www.w3.org/2000/svg"
 width="974.000000pt" height="608.000000pt" viewBox="0 0 974.000000 608.000000"
 preserveAspectRatio="xMidYMid meet">

<g transform="translate(0.000000,608.000000) scale(0.100000,-0.100000)"
fill="#000000" stroke="none">
<path d="M0 3040 l0 -3040 4870 0 4870 0 0 3040 0 3040 -4870 0 -4870 0 0
-3040z m2508 -15 c1 -297 0 -550 -3 -562 -6 -27 -40 -31 -49 -7 -9 22 -8 1099
1 1108 4 4 16 6 28 4 20 -3 20 -8 23 -543z m1706 422 c24 -16 26 -23 26 -87
l0 -70 -26 10 c-73 28 -124 -7 -124 -86 l0 -43 73 -3 72 -3 0 -75 0 -75 -72
-3 -73 -3 0 -229 0 -230 -95 0 -95 0 0 230 0 230 -35 0 -36 0 3 78 3 77 31 3
c31 3 31 4 37 72 13 157 91 235 228 227 32 -2 68 -11 83 -20z m2840 0 c24 -16
26 -23 26 -88 0 -66 -1 -69 -19 -59 -11 5 -37 10 -59 10 -35 0 -42 -4 -56 -34
-9 -19 -16 -50 -16 -70 l0 -35 73 -3 72 -3 0 -75 0 -75 -72 -3 -73 -3 0 -229
0 -230 -95 0 -95 0 0 230 0 230 -35 0 -36 0 3 78 3 77 33 3 c30 3 32 6 32 42
0 130 59 227 151 250 50 13 133 6 163 -13z m-4440 -13 c3 -9 6 -204 6 -434 0
-397 -1 -420 -18 -429 -40 -22 -42 -5 -42 430 0 230 3 424 6 433 3 9 14 16 24
16 10 0 21 -7 24 -16z m1831 -8 c63 -26 75 -97 26 -147 -60 -60 -160 -23 -161
59 0 45 16 71 53 87 40 18 41 18 82 1z m-2275 -32 c14 -35 13 -749 0 -775 -15
-26 -46 -24 -54 4 -11 40 -7 757 4 778 15 27 39 24 50 -7z m228 -375 c2 -324
0 -378 -13 -389 -8 -7 -22 -10 -30 -6 -13 5 -15 55 -15 379 0 385 2 402 40
395 13 -3 15 -52 18 -379z m426 355 c14 -5 16 -47 16 -370 l0 -364 -24 0 c-13
0 -27 7 -30 16 -3 9 -6 170 -6 358 0 363 2 376 44 360z m2984 -116 l3 -88 69
0 70 0 0 -80 0 -80 -70 0 -70 0 0 -140 c0 -127 2 -142 20 -160 24 -24 51 -25
90 -5 l30 16 0 -80 c0 -78 0 -79 -30 -91 -66 -27 -195 -6 -237 38 -49 52 -57
86 -61 260 l-4 162 -34 0 -34 0 0 80 0 80 35 0 35 0 0 90 0 91 93 -3 92 -3 3
-87z m-3750 -251 c2 -232 1 -258 -14 -264 -38 -15 -44 19 -44 267 0 242 3 265
40 258 13 -3 15 -40 18 -261z m226 227 c3 -9 6 -111 6 -228 0 -223 -6 -255
-43 -240 -15 6 -17 28 -17 245 l0 239 24 0 c13 0 27 -7 30 -16z m444 -209 c1
-121 0 -230 -3 -242 -6 -27 -40 -31 -49 -7 -8 22 -8 459 1 468 4 4 16 6 28 4
19 -3 20 -10 23 -223z m222 159 c15 -38 13 -347 -2 -362 -17 -17 -45 -15 -52
4 -10 27 -7 344 4 365 15 27 39 24 50 -7z m2049 -20 c10 -3 12 -16 6 -52 -13
-95 -9 -90 -79 -85 -59 5 -65 4 -97 -25 l-34 -30 -3 -212 -4 -211 -91 3 -92 3
0 305 0 305 93 3 92 3 0 -26 0 -26 29 22 c46 34 117 43 180 23z m351 -6 c36
-11 121 -60 138 -81 10 -12 -29 -62 -86 -111 -22 -19 -22 -19 -45 2 -34 32
-96 51 -130 39 -23 -7 -28 -14 -25 -36 3 -24 12 -29 109 -61 130 -43 156 -60
181 -118 18 -40 19 -51 9 -98 -23 -103 -121 -160 -257 -151 -85 5 -107 10
-143 36 -16 12 -33 21 -38 21 -4 0 -19 12 -32 26 l-24 25 61 62 61 61 28 -26
c41 -40 89 -57 131 -47 19 4 38 13 43 20 13 21 -8 46 -43 53 -18 3 -42 8 -53
10 -45 9 -127 47 -155 72 -113 101 -48 275 117 313 41 9 97 5 153 -11z m2288
-11 c24 -12 48 -30 53 -40 10 -17 12 -16 39 7 72 60 231 78 318 34 95 -47 112
-106 112 -393 l0 -205 -95 0 -95 0 0 206 c0 253 -8 274 -97 274 -36 0 -56 -6
-78 -24 l-30 -24 -3 -216 -3 -216 -94 0 -93 0 -4 208 c-3 206 -9 242 -42 264
-17 12 -92 9 -119 -3 -45 -21 -51 -50 -55 -267 l-3 -203 -92 3 -92 3 0 305 0
305 93 3 92 3 0 -26 c0 -30 3 -30 36 -8 69 45 172 49 252 10z m-5800 -136 c3
-162 -2 -180 -40 -160 -16 9 -18 25 -18 158 0 81 3 151 7 155 4 4 16 6 28 4
19 -3 20 -11 23 -157z m1332 140 c12 -24 13 -270 1 -289 -5 -8 -17 -12 -27
-10 -17 3 -19 15 -22 148 -1 79 0 150 2 157 8 19 34 16 46 -6z m1330 -291 l0
-310 -95 0 -95 0 0 303 c0 167 3 307 7 310 3 4 46 7 95 7 l88 0 0 -310z
m-1436 254 c3 -9 6 -57 6 -108 0 -98 -13 -135 -44 -123 -14 5 -16 24 -16 127
0 120 0 120 24 120 13 0 27 -7 30 -16z m-1116 -107 c2 -80 0 -98 -13 -103 -32
-13 -45 15 -45 96 0 94 6 112 34 108 20 -3 21 -10 24 -101z m1330 71 c14 -14
16 -116 3 -136 -5 -8 -17 -12 -27 -10 -16 3 -20 14 -22 66 -4 78 15 111 46 80z
m-1560 -20 c14 -14 16 -76 3 -96 -5 -8 -17 -12 -27 -10 -34 6 -29 118 5 118 4
0 12 -5 19 -12z m1671 -12 c7 -8 11 -30 9 -48 -2 -28 -7 -33 -28 -33 -21 0
-26 5 -28 33 -3 31 11 62 28 62 4 0 13 -6 19 -14z m3191 -166 l0 -80 -245 0
-245 0 0 80 0 80 245 0 245 0 0 -80z"/>
</g>
</svg>
