<?xml version="1.0" standalone="no"?>
<!DOCTYPE svg PUBLIC "-//W3C//DTD SVG 20010904//EN"
 "http://www.w3.org/TR/2001/REC-SVG-20010904/DTD/svg10.dtd">
<svg version="1.0" xmlns="http://www.w3.org/2000/svg"
 width="959.000000pt" height="408.000000pt" viewBox="0 0 959.000000 408.000000"
 preserveAspectRatio="xMidYMid meet">

<g transform="translate(0.000000,408.000000) scale(0.100000,-0.100000)"
fill="#000000" stroke="none">
<path d="M2307 2654 c-4 -4 -7 -256 -7 -560 0 -452 2 -553 13 -557 37 -14 37
-3 35 564 -3 491 -5 554 -18 557 -9 1 -19 0 -23 -4z"/>
<path d="M3912 2550 c-29 -5 -63 -15 -77 -24 -55 -36 -87 -114 -97 -236 -3
-31 -6 -35 -33 -35 l-30 -1 -3 -77 -3 -77 36 0 35 0 0 -230 0 -230 90 0 90 0
0 230 0 230 75 0 75 0 0 75 0 75 -59 0 c-33 0 -66 3 -75 6 -32 12 -10 129 28
143 25 10 74 4 94 -12 9 -7 12 7 12 66 0 72 -1 75 -27 85 -45 17 -75 19 -131
12z"/>
<path d="M6740 2550 c-114 -16 -162 -80 -177 -232 l-6 -68 -34 0 -34 0 3 -72
3 -73 33 -3 32 -3 0 -230 0 -229 90 0 90 0 0 230 0 230 75 0 75 0 0 75 0 75
-62 0 c-35 0 -69 4 -76 9 -19 12 -5 105 19 127 22 19 83 21 105 3 12 -10 14 1
14 64 0 72 -1 75 -27 85 -43 16 -74 19 -123 12z"/>
<path d="M2415 2517 c-3 -6 -4 -201 -3 -432 3 -412 3 -420 23 -420 20 0 20 8
23 433 2 429 2 432 -18 432 -11 0 -23 -6 -25 -13z"/>
<path d="M4177 2500 c-34 -27 -41 -63 -21 -105 21 -46 68 -62 117 -41 41 16
57 41 57 86 0 69 -94 106 -153 60z"/>
<path d="M1966 2469 c-3 -17 -6 -192 -6 -388 0 -375 3 -403 44 -388 14 6 16
44 16 407 l0 400 -24 0 c-18 0 -25 -7 -30 -31z"/>
<path d="M2196 2468 c-7 -22 -15 -714 -9 -737 4 -15 12 -21 27 -19 21 3 21 4
24 386 2 379 2 382 -18 382 -11 0 -22 -6 -24 -12z"/>
<path d="M2635 2447 c-3 -6 -4 -170 -3 -362 3 -342 3 -350 23 -350 20 0 20 8
23 363 2 359 2 362 -18 362 -11 0 -23 -6 -25 -13z"/>
<path d="M5448 2343 l-3 -88 -32 -3 -33 -3 0 -75 0 -74 34 0 34 0 4 -162 c3
-186 18 -233 83 -277 47 -32 157 -41 203 -17 31 16 32 18 32 87 0 66 -1 69
-19 59 -23 -12 -71 -13 -87 -2 -27 18 -34 56 -34 181 l0 131 70 0 70 0 0 75 0
74 -67 3 -68 3 -3 88 -3 87 -89 0 -89 0 -3 -87z"/>
<path d="M1860 2341 c-12 -24 -13 -469 -1 -490 5 -7 17 -11 27 -9 18 3 19 17
19 258 0 231 -2 255 -17 258 -9 2 -22 -6 -28 -17z"/>
<path d="M2087 2334 c-10 -11 -8 -472 2 -478 5 -4 16 -3 25 0 15 6 16 33 14
243 -3 203 -5 236 -18 239 -9 1 -19 0 -23 -4z"/>
<path d="M2527 2333 c-4 -3 -7 -108 -7 -233 0 -228 4 -255 36 -243 11 4 14 50
14 244 0 225 -1 239 -18 239 -10 0 -22 -3 -25 -7z"/>
<path d="M2744 2277 c-2 -7 -3 -94 -2 -192 3 -172 4 -180 23 -180 19 0 20 8
23 193 2 188 2 192 -18 192 -11 0 -23 -6 -26 -13z"/>
<path d="M1642 2248 c-14 -14 -17 -275 -3 -296 5 -8 17 -12 27 -10 17 3 19 15
22 147 2 97 -1 148 -9 157 -14 17 -21 18 -37 2z"/>
<path d="M4666 2235 c-44 -30 -46 -30 -46 -5 0 19 -7 20 -90 20 l-90 0 0 -305
0 -305 90 0 90 0 0 198 c0 173 2 202 19 232 27 52 96 71 161 45 13 -4 18 8 27
62 14 80 12 83 -68 83 -44 0 -64 -6 -93 -25z"/>
<path d="M5010 2251 c-125 -38 -184 -151 -135 -255 24 -51 64 -76 185 -116 86
-29 105 -39 105 -55 0 -27 -48 -49 -91 -41 -18 4 -53 22 -78 40 l-44 34 -58
-59 -59 -59 30 -25 c54 -44 135 -79 197 -83 163 -12 280 82 265 214 -8 71 -49
107 -167 145 -138 44 -163 65 -122 102 29 26 65 20 123 -19 l53 -35 55 56 56
56 -36 33 c-66 61 -196 92 -279 67z"/>
<path d="M6998 2253 c-17 -4 -18 -27 -18 -309 l0 -304 90 0 90 0 0 173 c1 201
8 250 43 285 36 35 116 38 149 4 22 -22 23 -30 28 -240 l5 -217 93 -3 92 -3 0
203 c0 227 4 243 63 272 45 22 95 16 123 -15 17 -19 20 -44 24 -238 l5 -216
93 -3 94 -3 -4 233 c-3 196 -7 240 -22 276 -36 84 -109 118 -232 109 -76 -6
-136 -26 -170 -58 l-21 -20 -31 29 c-69 65 -233 69 -301 8 -20 -18 -31 -12
-31 16 0 15 -8 18 -59 18 -33 0 -65 2 -73 4 -7 2 -21 2 -30 -1z"/>
<path d="M2967 2244 c-11 -11 -8 -277 3 -294 7 -12 13 -12 27 -4 16 10 18 28
18 155 0 137 -1 144 -20 147 -12 2 -24 0 -28 -4z"/>
<path d="M4150 1945 l0 -305 90 0 90 0 0 305 0 305 -90 0 -90 0 0 -305z"/>
<path d="M2856 2204 c-3 -9 -6 -60 -6 -114 0 -77 3 -100 16 -111 30 -24 44 14
44 117 0 105 -5 124 -30 124 -10 0 -21 -7 -24 -16z"/>
<path d="M1752 2188 c-14 -14 -17 -155 -3 -176 5 -8 17 -12 27 -10 17 3 19 13
19 98 0 77 -3 95 -15 98 -9 1 -21 -3 -28 -10z"/>
<path d="M3076 2154 c-12 -31 -6 -111 9 -124 25 -21 45 5 45 60 0 61 -7 80
-30 80 -10 0 -21 -7 -24 -16z"/>
<path d="M1526 2135 c-20 -52 8 -111 39 -85 11 9 15 27 13 54 -2 33 -7 42 -24
44 -13 2 -24 -4 -28 -13z"/>
<path d="M3184 2116 c-8 -35 4 -66 26 -66 38 0 40 83 3 88 -17 3 -24 -3 -29
-22z"/>
<path d="M5910 1970 l0 -80 243 2 242 3 0 75 0 75 -242 3 -243 2 0 -80z"/>
</g>
</svg>
