<?xml version="1.0" standalone="no"?>
<!DOCTYPE svg PUBLIC "-//W3C//DTD SVG 20010904//EN"
 "http://www.w3.org/TR/2001/REC-SVG-20010904/DTD/svg10.dtd">
<svg version="1.0" xmlns="http://www.w3.org/2000/svg"
 width="474.000000pt" height="416.000000pt" viewBox="0 0 474.000000 416.000000"
 preserveAspectRatio="xMidYMid meet">

<g transform="translate(0.000000,416.000000) scale(0.100000,-0.100000)"
fill="#000000" stroke="none">
<path d="M2207 3142 c-16 -17 -17 -99 -17 -974 0 -912 1 -956 18 -971 26 -23
58 -21 76 5 14 20 16 129 16 970 0 935 0 948 -20 968 -25 25 -52 26 -73 2z"/>
<path d="M2402 2928 c-17 -17 -17 -1499 0 -1516 19 -19 66 -15 78 7 7 13 10
267 10 755 0 654 -2 736 -16 750 -18 19 -55 21 -72 4z"/>
<path d="M1626 2874 c-9 -8 -18 -25 -21 -37 -3 -12 -4 -323 -3 -690 3 -649 4
-669 22 -683 26 -18 51 -18 70 2 14 14 16 91 16 703 0 654 -1 689 -18 704 -23
21 -46 22 -66 1z"/>
<path d="M2012 2838 c-15 -19 -28 -1298 -14 -1325 17 -31 49 -35 77 -10 l24
22 3 646 c2 534 0 649 -11 663 -16 19 -64 21 -79 4z"/>
<path d="M2792 2798 c-9 -9 -12 -162 -12 -628 0 -611 0 -617 21 -636 19 -17
23 -17 47 -3 l27 15 3 612 c1 411 -1 619 -8 633 -12 22 -59 26 -78 7z"/>
<path d="M1426 2614 c-14 -14 -16 -67 -16 -442 0 -235 4 -432 8 -438 4 -6 17
-16 30 -23 19 -10 26 -8 47 13 l25 25 0 418 c0 363 -2 422 -16 441 -18 26 -56
29 -78 6z"/>
<path d="M1817 2582 c-15 -17 -17 -60 -17 -415 0 -433 0 -432 59 -425 49 6 51
22 51 436 0 369 -1 383 -20 402 -25 25 -52 26 -73 2z"/>
<path d="M2596 2578 c-14 -19 -16 -76 -16 -414 0 -366 1 -392 18 -407 26 -23
58 -21 76 5 14 19 16 75 16 410 0 375 -1 389 -20 408 -26 26 -55 25 -74 -2z"/>
<path d="M2987 2502 c-15 -16 -17 -55 -17 -335 0 -342 1 -347 55 -347 52 0 55
18 55 356 0 288 -1 312 -18 327 -24 22 -55 21 -75 -1z"/>
<path d="M1049 2447 l-24 -13 -3 -261 -2 -262 24 -16 c29 -19 71 -4 80 29 10
36 7 463 -4 490 -13 35 -40 48 -71 33z"/>
<path d="M3376 2428 c-13 -19 -16 -62 -16 -264 0 -221 2 -242 18 -257 26 -23
58 -21 76 5 13 19 16 61 16 258 0 256 -5 280 -55 280 -13 0 -31 -10 -39 -22z"/>
<path d="M3188 2379 c-16 -9 -18 -30 -18 -209 0 -187 1 -200 19 -210 30 -16
59 -12 71 9 6 12 10 96 10 205 0 154 -3 187 -16 200 -18 18 -41 20 -66 5z"/>
<path d="M1229 2333 c-10 -11 -15 -56 -17 -155 -4 -154 6 -188 53 -188 49 0
55 19 55 179 0 131 -2 150 -18 164 -24 22 -56 22 -73 0z"/>
<path d="M3590 2297 c-24 -12 -25 -16 -28 -128 -3 -114 -2 -115 22 -129 22
-11 29 -11 51 4 25 17 26 18 23 128 -3 98 -5 112 -23 124 -16 11 -25 11 -45 1z"/>
<path d="M840 2250 c-25 -25 -28 -124 -4 -158 18 -26 56 -29 78 -6 24 24 22
145 -2 167 -25 22 -48 21 -72 -3z"/>
<path d="M3771 2241 c-29 -29 -29 -113 -1 -141 43 -43 90 -8 90 68 0 53 -13
76 -47 87 -15 4 -28 0 -42 -14z"/>
</g>
</svg>
